<svg width="43" height="48" viewBox="0 0 43 48" fill="none" xmlns="http://www.w3.org/2000/svg">
<path d="M15.1408 43.121C14.7081 43.0017 14.3723 42.8002 14.3499 42.3226C14.3275 41.8003 14.6857 41.5765 15.1408 41.4422C15.1408 40.8452 15.1632 40.2632 15.1259 39.6812C15.1184 39.5096 15.014 39.2783 14.8797 39.1813C13.7007 38.3605 13.3799 37.2338 13.5217 35.8534C13.6187 34.9132 13.5217 33.9581 13.5515 33.0105C13.5664 32.5181 13.3799 32.1823 13.0367 31.839C8.3806 27.1755 6.85096 21.6091 8.67906 15.3041C10.0744 10.4764 13.559 7.70065 18.4165 6.70079C22.2518 5.90985 25.9378 6.42471 29.2881 8.54381C32.5115 10.5883 34.3247 13.6103 34.8694 17.3411C35.6902 23.0567 34.0486 27.9665 29.8626 32.0032C29.6537 32.2047 29.5269 32.5777 29.5194 32.8762C29.4821 34.3238 29.497 35.7639 29.5119 37.2114C29.5194 37.6218 29.4373 37.9874 29.0941 38.2262C28.0644 38.9425 27.7361 39.92 27.8928 41.1437C27.9749 41.763 27.9077 42.4047 27.9077 43.039C28.3405 43.1583 28.6762 43.3673 28.6986 43.8374C28.7135 44.2776 28.4524 44.5238 28.0495 44.673C27.9375 44.7178 27.9002 44.9417 27.7958 45.0536C26.9153 45.9565 26.0274 46.8519 25.117 47.7249C24.9902 47.8517 24.7141 47.8517 24.5052 47.8592C22.5129 47.8666 20.5207 47.8816 18.521 47.8517C18.2225 47.8443 17.8643 47.695 17.6479 47.4936C16.9092 46.822 16.2079 46.1132 15.5363 45.3819C15.3274 45.1506 15.2005 44.785 15.1558 44.4641C15.0961 44.0314 15.1408 43.5762 15.1408 43.121ZM23.9381 38.3008C24.5201 38.3008 25.0797 38.2411 25.6095 38.3157C26.4676 38.4277 27.1317 38.1665 27.6092 37.4577C27.7435 37.2562 27.8853 37.0025 27.8928 36.7712C27.9226 35.443 27.9077 34.1148 27.9077 32.7792C27.9077 32.0181 28.1763 31.3913 28.721 30.869C32.6085 27.1979 34.0934 22.6762 33.2651 17.4455C32.6533 13.573 30.5491 10.7152 26.9302 9.08852C24.438 7.96927 21.8041 7.70811 19.1254 8.19311C14.9245 8.94674 11.8652 11.1927 10.3505 15.2742C8.41044 20.4974 9.99978 26.8771 14.141 30.69C14.8275 31.3167 15.1707 32.0405 15.1483 32.9658C15.1184 34.2268 15.1408 35.4952 15.1408 36.7563C15.1408 37.1592 15.9989 38.271 16.3795 38.2859C17.2823 38.3157 18.1926 38.2934 19.1104 38.2934C19.1104 36.8682 19.1104 35.5102 19.1104 34.2193C18.4463 33.9432 17.7897 33.7418 17.2077 33.4209C16.4392 32.9956 16.0064 32.3091 16.1407 31.3988C16.275 30.4885 16.8496 29.9139 17.7002 29.6304C18.7672 29.2722 19.8193 29.7572 20.3043 30.8765C20.5505 31.4436 20.655 32.0704 20.8266 32.6822C21.2892 32.6822 21.7817 32.6822 22.2816 32.6822C22.3338 32.3614 22.3562 32.0629 22.4234 31.7719C22.6398 30.8317 23.0203 29.9886 24.0127 29.6379C25.0499 29.2648 26.2363 29.802 26.7288 30.8243C27.1839 31.757 26.878 32.8016 25.8781 33.3911C25.2887 33.7418 24.6097 33.9432 23.9307 34.2268C23.9381 35.5027 23.9381 36.8682 23.9381 38.3008ZM26.2885 39.9275C23.0875 39.9275 19.9237 39.9275 16.76 39.9275C16.76 40.4572 16.76 40.9497 16.76 41.4869C16.9465 41.4869 17.1032 41.4869 17.2674 41.4869C18.118 41.4869 18.9612 41.4795 19.8118 41.4869C20.364 41.4944 20.7147 41.8003 20.7221 42.2629C20.7371 42.748 20.3714 43.0613 19.7969 43.0763C19.6178 43.0837 19.4313 43.0763 19.2522 43.0763C18.4239 43.0763 17.6032 43.0763 16.7899 43.0763C16.6332 43.8747 16.7152 44.5238 17.3942 45.0163C17.7673 45.2849 18.0434 45.6804 18.3941 45.9788C18.5657 46.1206 18.812 46.2475 19.0283 46.2549C20.6923 46.2773 22.3488 46.2698 24.0127 46.2624C24.1396 46.2624 24.3187 46.2848 24.3933 46.2176C24.8932 45.7326 25.3707 45.2178 25.9005 44.673C24.9454 44.673 24.0724 44.6805 23.1919 44.673C22.5353 44.6656 22.1473 44.1134 22.3861 43.5687C22.5502 43.2031 22.8487 43.0763 23.2293 43.0763C24.2366 43.0837 25.2439 43.0763 26.2736 43.0763C26.2885 42.0092 26.2885 40.987 26.2885 39.9275ZM22.2816 38.2784C22.2816 36.9279 22.2816 35.6221 22.2816 34.3312C21.7518 34.3312 21.2594 34.3312 20.752 34.3312C20.752 35.6594 20.752 36.9577 20.752 38.2784C21.2743 38.2784 21.7668 38.2784 22.2816 38.2784ZM19.0283 32.4882C19.0731 32.4434 19.1179 32.4061 19.1552 32.3614C19.006 32.0107 18.9015 31.6227 18.7 31.3093C18.506 31.0108 18.1031 31.063 17.8494 31.3615C17.5883 31.6674 17.7449 31.8987 18.021 32.048C18.3344 32.227 18.6851 32.3464 19.0283 32.4882ZM23.9083 32.3688C23.953 32.4061 23.9903 32.4509 24.0351 32.4882C24.3485 32.3614 24.6843 32.2569 24.9753 32.0853C25.132 31.9883 25.326 31.7346 25.2961 31.6077C25.2513 31.4287 25.0201 31.2048 24.841 31.1675C24.6694 31.1377 24.3709 31.272 24.2739 31.4212C24.0948 31.6973 24.0202 32.048 23.9083 32.3688Z" fill="white"/>
<path d="M9.61898 8.06634C9.46229 8.25288 9.33545 8.5588 9.11906 8.64834C8.88029 8.74534 8.46244 8.74535 8.30575 8.59612C7.41781 7.77534 6.55972 6.91724 5.73147 6.03677C5.44793 5.7383 5.51508 5.34284 5.79863 5.04437C6.10455 4.73098 6.51495 4.66384 6.82834 4.9623C7.70881 5.79055 8.55198 6.66355 9.39514 7.5291C9.50707 7.63356 9.52198 7.82756 9.61898 8.06634Z" fill="white"/>
<path d="M37.5852 5.52955C37.4136 5.81309 37.3241 6.05932 37.1599 6.22347C36.4361 6.9771 35.69 7.71581 34.9438 8.44705C34.526 8.85744 34.0559 8.87982 33.7127 8.52166C33.3843 8.17842 33.4142 7.73073 33.8022 7.3278C34.5484 6.56672 35.302 5.82055 36.0556 5.07439C36.3242 4.80577 36.66 4.65653 36.9958 4.87292C37.2271 5.02961 37.3763 5.29078 37.5852 5.52955Z" fill="white"/>
<path d="M6.29852 36.771C6.09706 36.6069 5.78367 36.4726 5.68666 36.2413C5.58966 36.01 5.60459 35.5921 5.76128 35.4279C6.56714 34.5475 7.41776 33.7043 8.29077 32.8835C8.61162 32.5851 9.01455 32.6448 9.32048 32.9507C9.6264 33.2641 9.67864 33.667 9.37271 33.9804C8.55193 34.846 7.69385 35.6816 6.83576 36.5174C6.7313 36.6367 6.54476 36.6666 6.29852 36.771Z" fill="white"/>
<path d="M36.7195 36.8014C36.4435 36.6372 36.2196 36.5551 36.0629 36.4059C35.2869 35.6523 34.5258 34.8912 33.7722 34.1152C33.4066 33.7421 33.4066 33.2869 33.72 32.9586C34.0483 32.6154 34.5184 32.6228 34.9138 33.0034C35.6824 33.757 36.4435 34.5256 37.2045 35.2941C37.4732 35.5627 37.6075 35.906 37.3836 36.2417C37.2269 36.4656 36.9583 36.6074 36.7195 36.8014Z" fill="white"/>
<path d="M22.3188 2.42549C22.3188 2.92542 22.3263 3.42535 22.3188 3.91782C22.3039 4.43267 21.9905 4.76845 21.5428 4.78337C21.0727 4.79829 20.7369 4.4476 20.7295 3.91036C20.722 2.89558 20.722 1.88079 20.7295 0.866011C20.7369 0.351158 21.0503 0.0153816 21.5055 0.00045837C21.9756 -0.0144649 22.3113 0.336231 22.3188 0.873468C22.3263 1.39578 22.3188 1.91064 22.3188 2.42549Z" fill="white"/>
<path d="M3.15719 21.5427C2.65726 21.5427 2.15733 21.5501 1.66486 21.5427C1.12762 21.5277 0.776917 21.1994 0.79184 20.7294C0.799302 20.2817 1.13507 19.9608 1.64992 19.9534C2.66471 19.9459 3.6795 19.9459 4.69428 19.9534C5.23152 19.9608 5.58221 20.2966 5.56728 20.7667C5.55982 21.2144 5.21658 21.5352 4.70173 21.5427C4.18688 21.5501 3.67204 21.5427 3.15719 21.5427Z" fill="white"/>
<path d="M39.906 19.9457C40.391 19.9457 40.8685 19.9382 41.3535 19.9457C41.9057 19.9532 42.2564 20.2591 42.2638 20.7292C42.2713 21.1993 41.9281 21.535 41.3834 21.535C40.3686 21.5425 39.3538 21.5425 38.3465 21.535C37.8316 21.5276 37.4959 21.2067 37.4884 20.7516C37.4809 20.2815 37.8242 19.9532 38.3689 19.9457C38.8763 19.9382 39.3911 19.9457 39.906 19.9457Z" fill="white"/>
<path d="M23.1169 19.8489C23.1169 21.4233 23.1169 23.0051 23.1169 24.5795C23.1169 25.1242 22.8558 25.46 22.423 25.5197C21.9081 25.5868 21.5276 25.1988 21.5276 24.5795C21.5201 22.2366 21.5276 19.8936 21.5276 17.5507C21.5276 17.3194 21.5351 17.088 21.5276 16.8567C21.5201 16.424 21.6992 16.1031 22.1245 15.9912C22.5573 15.8718 22.8558 16.0807 23.0722 16.4464C24.0347 18.0581 24.9973 19.6623 25.9673 21.274C26.0493 21.4083 26.1389 21.5426 26.318 21.8038C26.318 21.4979 26.318 21.3412 26.318 21.1845C26.318 19.7593 26.318 18.3267 26.318 16.9015C26.318 16.312 26.6314 15.9613 27.1164 15.9613C27.6014 15.9613 27.9148 16.3195 27.9148 16.9015C27.9222 19.4609 27.9148 22.0202 27.9222 24.5721C27.9222 25.0198 27.773 25.363 27.3253 25.4899C26.8701 25.6167 26.5717 25.3705 26.3478 24.9899C25.3927 23.3931 24.4376 21.8038 23.4826 20.207C23.4005 20.0727 23.3109 19.9384 23.2214 19.8041C23.1766 19.8265 23.1468 19.8414 23.1169 19.8489Z" fill="white"/>
<path d="M16.7597 21.5415C16.7597 22.3697 16.7597 23.1234 16.7597 23.9367C17.4909 23.9367 18.1998 23.9367 18.9086 23.9367C19.5503 23.9367 19.9085 24.2202 19.9234 24.7127C19.9384 25.2201 19.5578 25.5335 18.9012 25.5335C17.9685 25.5335 17.0432 25.5409 16.1105 25.5335C15.4241 25.526 15.1405 25.2499 15.1405 24.5635C15.1331 22.019 15.1405 19.4821 15.1405 16.9377C15.1405 16.2512 15.424 15.9676 16.1031 15.9602C17.0507 15.9527 17.9983 15.9527 18.9459 15.9602C19.5653 15.9602 19.9309 16.2736 19.9234 16.7735C19.916 17.251 19.5578 17.5495 18.9683 17.557C18.2446 17.5644 17.5133 17.557 16.7373 17.557C16.7373 17.9823 16.7373 18.3554 16.7373 18.7359C16.7373 19.1165 16.7373 19.497 16.7373 19.9522C17.5133 19.9522 18.2744 19.9522 19.028 19.9522C19.4832 19.9522 19.7966 20.1462 19.9085 20.6013C20.0279 21.0863 19.6473 21.534 19.0877 21.549C18.3266 21.5564 17.5581 21.5415 16.7597 21.5415Z" fill="white"/>
</svg>
