<svg width="34" height="29" viewBox="0 0 34 29" fill="none" xmlns="http://www.w3.org/2000/svg">
<path d="M0.792725 5.09337C0.979266 4.35467 1.3225 3.71297 2.05374 3.39958C2.41936 3.24288 2.8372 3.19811 3.23267 3.13842C3.50875 3.10111 3.78483 3.13096 4.14299 3.13096C4.14299 2.65341 4.11315 2.20572 4.15046 1.75802C4.22508 0.76562 5.06823 0.00453264 6.05317 0.0119943C7.06049 0.0119943 7.91111 0.81785 7.96335 1.82517C7.98573 2.24302 7.96335 2.66087 7.96335 3.10857C8.79905 3.10857 9.61236 3.10857 10.4779 3.10857C10.4779 2.74295 10.4705 2.38479 10.4779 2.01917C10.4928 0.914852 11.1718 0.153765 12.2388 0.0269172C13.2312 -0.0850074 14.2162 0.698465 14.2983 1.69086C14.3281 2.08633 14.3057 2.48926 14.3356 2.88472C14.343 2.9668 14.4401 3.11603 14.4997 3.11603C15.2608 3.13096 16.0219 3.1235 16.8278 3.1235C16.8278 2.70564 16.8128 2.3251 16.8278 1.94456C16.8651 1.11632 17.2382 0.497001 18.0067 0.168689C18.7454 -0.1447 19.4468 -0.0178528 20.0512 0.519385C20.5064 0.922313 20.678 1.45209 20.6854 2.04902C20.6854 2.39226 20.6854 2.73549 20.6854 3.10111C21.5137 3.10111 22.3121 3.10111 23.1776 3.10111C23.1776 2.7728 23.1776 2.44449 23.1776 2.11618C23.1776 1.4894 23.3418 0.922314 23.8343 0.497C24.4237 -0.0103909 25.1027 -0.137239 25.819 0.153765C26.5503 0.444769 26.9607 1.01932 27.0203 1.81025C27.0502 2.2281 27.0278 2.64595 27.0278 3.1235C27.3561 3.1235 27.6621 3.11603 27.968 3.1235C29.1544 3.14588 29.9901 3.7652 30.2737 4.8546C30.3408 5.12321 30.3557 5.40676 30.3557 5.68284C30.3632 8.27949 30.3632 10.8761 30.3557 13.4653C30.3557 13.7041 30.4303 13.8608 30.6169 14.0026C32.1092 15.1143 33.1165 16.5843 33.5866 18.3751C34.2731 21.0165 33.7433 23.4266 32.0794 25.583C31.8779 25.8442 31.5944 25.8964 31.378 25.7323C31.1467 25.5606 31.1093 25.2696 31.3332 24.9935C31.9077 24.2474 32.3405 23.4266 32.6166 22.5163C33.9373 18.2109 30.7736 13.622 26.2817 13.3385C22.3419 13.0848 19.0364 15.853 18.5887 19.7779C18.1634 23.4714 20.9242 27.038 24.5953 27.5827C26.4906 27.8588 28.2292 27.4857 29.811 26.4113C29.8633 26.374 29.9155 26.3366 29.9752 26.3068C30.2513 26.1576 30.505 26.2023 30.6542 26.4336C30.8034 26.6575 30.7587 26.9485 30.4975 27.1052C29.9603 27.4335 29.423 27.7991 28.841 28.023C25.8787 29.1646 23.1254 28.7617 20.6108 26.8067C20.387 26.6276 20.1706 26.553 19.8796 26.553C14.3655 26.5605 8.85128 26.553 3.34459 26.5605C2.49396 26.5605 1.76273 26.3292 1.27026 25.6129C1.06133 25.3144 0.956872 24.9339 0.80764 24.5981C0.80764 18.8675 0.80764 13.137 0.80764 7.40647C0.979257 7.20501 1.15087 7.01101 1.4568 7.13039C1.75526 7.24978 1.77764 7.50348 1.77764 7.77209C1.77018 8.11533 1.77764 8.4511 1.77764 8.8018C11.0002 8.8018 20.178 8.8018 29.3633 8.8018C29.3633 7.55571 29.4006 6.31708 29.341 5.08591C29.3186 4.58598 28.9082 4.22036 28.4082 4.13828C27.9755 4.06366 27.5203 4.12335 27.0353 4.12335C27.0353 4.54867 27.0577 4.96652 27.0278 5.38437C26.9532 6.63793 25.737 7.47363 24.5431 7.10055C23.685 6.83193 23.2 6.13054 23.1851 5.13068C23.1776 4.78744 23.1851 4.45167 23.1851 4.08605C22.7299 4.08605 22.3344 4.08605 21.939 4.08605C21.536 4.08605 21.1257 4.08605 20.6929 4.08605C20.6929 4.48151 20.7004 4.83221 20.6929 5.19037C20.6556 6.49616 19.6483 7.36917 18.4171 7.16024C17.5068 7.01101 16.8651 6.22754 16.8352 5.22768C16.8278 4.8546 16.8352 4.48151 16.8352 4.10097C15.9846 4.10097 15.1862 4.10097 14.3132 4.10097C14.3132 4.57852 14.343 5.04114 14.3057 5.4963C14.2311 6.51854 13.2163 7.31694 12.2015 7.17516C11.1868 7.03339 10.5227 6.29469 10.4929 5.27245C10.4854 4.8919 10.4929 4.5039 10.4929 4.10843C9.63476 4.10843 8.82145 4.10843 7.97828 4.10843C7.97828 4.54867 7.99321 4.96652 7.97828 5.38437C7.91859 6.50362 6.91127 7.33186 5.80694 7.1677C4.79962 7.02593 4.16537 6.26484 4.13552 5.16052C4.12806 4.80983 4.13552 4.45913 4.13552 4.08605C3.7699 4.08605 3.45653 4.07859 3.1506 4.08605C2.30744 4.11589 1.80004 4.63075 1.78511 5.48137C1.77765 5.74999 1.73288 5.9813 1.4568 6.08576C1.15833 6.19769 0.971803 6.01115 0.815109 5.79476C0.792724 5.57091 0.792725 5.33214 0.792725 5.09337ZM17.5889 21.009C16.104 21.009 14.6639 21.009 13.2163 21.009C13.2163 22.5461 13.2163 24.0534 13.2163 25.5681C15.2533 25.5681 17.268 25.5681 19.3349 25.5681C18.2753 24.2026 17.7157 22.6954 17.5889 21.009ZM6.48596 19.9943C6.48596 18.4572 6.48596 16.935 6.48596 15.4053C4.90409 15.4053 3.33713 15.4053 1.78511 15.4053C1.78511 16.9499 1.78511 18.4721 1.78511 19.9943C3.36698 19.9943 4.91901 19.9943 6.48596 19.9943ZM12.224 15.4053C10.6346 15.4053 9.0826 15.4053 7.5082 15.4053C7.5082 16.9424 7.5082 18.4646 7.5082 19.9943C9.09006 19.9943 10.6496 19.9943 12.224 19.9943C12.224 18.4572 12.224 16.9424 12.224 15.4053ZM17.9321 14.4055C17.9321 12.8609 17.9321 11.3537 17.9321 9.82404C16.3502 9.82404 14.7907 9.82404 13.2238 9.82404C13.2238 11.3611 13.2238 12.8833 13.2238 14.4055C14.7982 14.4055 16.3502 14.4055 17.9321 14.4055ZM13.2238 15.3979C13.2238 16.9574 13.2238 18.4795 13.2238 19.9943C14.6937 19.9943 16.1264 19.9943 17.5739 19.9943C17.7008 19.2257 17.8724 18.4795 17.9396 17.7259C17.9992 16.9574 17.9545 16.1814 17.9545 15.3979C16.3502 15.3979 14.7982 15.3979 13.2238 15.3979ZM1.78511 9.81658C1.78511 11.3686 1.78511 12.8759 1.78511 14.3906C3.36698 14.3906 4.93394 14.3906 6.48596 14.3906C6.48596 12.8535 6.48596 11.3388 6.48596 9.81658C4.91155 9.81658 3.35206 9.81658 1.78511 9.81658ZM7.49326 14.3906C9.09005 14.3906 10.6495 14.3906 12.209 14.3906C12.209 12.8535 12.209 11.3462 12.209 9.82404C10.6272 9.82404 9.06766 9.82404 7.49326 9.82404C7.49326 11.3537 7.49326 12.8609 7.49326 14.3906ZM7.49326 25.5756C9.08259 25.5756 10.6495 25.5756 12.2165 25.5756C12.2165 24.0385 12.2165 22.5237 12.2165 21.009C10.6346 21.009 9.07513 21.009 7.49326 21.009C7.49326 22.5312 7.49326 24.0385 7.49326 25.5756ZM6.48596 25.583C6.48596 24.031 6.48596 22.5163 6.48596 21.009C4.89663 21.009 3.33713 21.009 1.76273 21.009C1.76273 22.0686 1.76273 23.0983 1.76273 24.1355C1.76273 25.0682 2.28505 25.5905 3.21776 25.5979C4.21762 25.6054 5.21747 25.5979 6.21733 25.5979C6.30687 25.6054 6.38896 25.5905 6.48596 25.583ZM18.932 14.413C19.2901 14.413 19.6109 14.398 19.9318 14.4204C20.2079 14.4353 20.4243 14.3533 20.6332 14.1742C21.4465 13.4952 22.3643 13.0176 23.3716 12.7192C23.588 12.6595 23.6925 12.5699 23.6701 12.3237C23.6477 11.9581 23.6626 11.5925 23.6626 11.2268C23.6626 10.7567 23.6626 10.2867 23.6626 9.82404C22.0584 9.82404 20.4914 9.82404 18.9245 9.82404C18.932 11.3611 18.932 12.8684 18.932 14.413ZM29.3708 9.83151C27.7815 9.83151 26.222 9.83151 24.655 9.83151C24.655 10.7045 24.655 11.5477 24.655 12.4282C26.2966 12.2416 27.8561 12.4878 29.3708 13.2266C29.3708 12.0625 29.3708 10.9582 29.3708 9.83151ZM19.7154 3.62343C19.7154 3.09365 19.7229 2.57133 19.7154 2.04156C19.708 1.41478 19.2976 0.974545 18.7454 0.974545C18.1858 0.982007 17.7903 1.41478 17.7903 2.04902C17.7828 3.09365 17.7828 4.13082 17.7903 5.17545C17.7903 5.80222 18.2007 6.24246 18.7529 6.24246C19.305 6.24246 19.7005 5.79476 19.708 5.16798C19.7229 4.65313 19.7154 4.13828 19.7154 3.62343ZM7.00079 3.60104C7.00079 3.0638 7.00825 2.52657 7.00079 1.98933C6.99333 1.39986 6.59787 0.982007 6.05317 0.974545C5.53085 0.967084 5.10553 1.37001 5.09061 1.94456C5.06823 3.04888 5.06823 4.16066 5.09061 5.26499C5.09807 5.85445 5.53831 6.26484 6.06808 6.24992C6.60532 6.235 6.99333 5.81715 7.00079 5.22022C7.00825 4.67552 7.00079 4.13828 7.00079 3.60104ZM26.0578 3.62343C26.0578 3.08619 26.0653 2.54895 26.0578 2.01171C26.0504 1.41478 25.6698 0.99693 25.1326 0.982006C24.6103 0.959621 24.17 1.35509 24.1551 1.92963C24.1327 3.05634 24.1327 4.18305 24.1551 5.31722C24.17 5.8843 24.6252 6.27977 25.14 6.24992C25.6698 6.22008 26.0504 5.80969 26.0578 5.2426C26.0653 4.6979 26.0578 4.16066 26.0578 3.62343ZM11.4479 3.6085C11.4479 4.14574 11.4405 4.68298 11.4479 5.22022C11.4554 5.80968 11.8434 6.235 12.3806 6.24246C12.9179 6.25738 13.3432 5.83953 13.3507 5.25752C13.3656 4.16066 13.3656 3.0638 13.3507 1.96694C13.3432 1.37747 12.9253 0.967084 12.3881 0.974545C11.8434 0.982007 11.4554 1.39986 11.4479 1.99679C11.4405 2.53403 11.4479 3.07126 11.4479 3.6085ZM18.9543 15.3904C18.9543 15.5844 18.9543 15.7486 18.9543 15.9948C19.1185 15.7486 19.2304 15.5844 19.3647 15.3904C19.1931 15.3904 19.0886 15.3904 18.9543 15.3904Z" fill="white"/>
<path d="M25.7295 26.56C22.0509 26.5003 19.2453 23.2321 19.7975 19.6132C19.9168 18.8298 20.1855 18.0985 20.5959 17.412C20.7675 17.121 21.0212 17.0315 21.2674 17.1583C21.5211 17.2927 21.6032 17.5762 21.4316 17.8821C20.9242 18.7626 20.663 19.6953 20.6929 20.7175C20.7749 23.4709 23.2 25.7019 25.9458 25.5452C28.1321 25.4184 29.9453 24.0007 30.5497 21.9562C31.1616 19.8744 30.4079 17.703 28.6246 16.4122C26.9457 15.1959 24.5654 15.181 22.8716 16.3674C22.7821 16.4271 22.7 16.4943 22.6105 16.554C22.3643 16.7032 22.1329 16.6808 21.9464 16.4644C21.7748 16.2629 21.8121 15.9496 22.0584 15.7854C22.4687 15.5093 22.8791 15.2258 23.3268 15.0243C26.5503 13.6066 30.2437 15.2556 31.4152 18.6357C32.5419 21.8592 30.5945 25.4482 27.2442 26.3212C26.7517 26.4332 26.2369 26.4779 25.7295 26.56Z" fill="white"/>
<path d="M26.1996 20.7407C26.4234 20.7407 26.6025 20.7407 26.7816 20.7407C27.6397 20.7407 28.5052 20.7407 29.3633 20.7407C29.7663 20.7407 29.9901 20.9272 29.9901 21.2331C29.9827 21.5241 29.7663 21.7032 29.3783 21.7032C28.1919 21.7032 27.0129 21.7032 25.8265 21.7032C25.4087 21.7032 25.2296 21.5316 25.2296 21.1138C25.2221 19.9199 25.2221 18.726 25.2296 17.5322C25.2296 17.1666 25.4161 16.9651 25.7072 16.9651C26.0131 16.9651 26.1847 17.1665 26.1921 17.5546C26.2071 18.5992 26.1996 19.6438 26.1996 20.7407Z" fill="white"/>
</svg>
