<svg width="35" height="29" viewBox="0 0 35 29" fill="none" xmlns="http://www.w3.org/2000/svg">
<path d="M0.622803 16.1249C0.682496 15.8488 0.742188 15.5653 0.816804 15.2892C1.55551 12.3717 4.01785 10.4167 7.02489 10.3794C8.45752 10.3645 9.89762 10.3794 11.3302 10.3794C11.4646 10.3794 11.5914 10.3794 11.7705 10.3794C11.86 12.0508 12.4793 13.476 13.6508 14.655C9.55438 16.2294 7.92774 19.2812 8.25606 23.5492C5.60718 23.4074 3.0926 22.8553 0.622803 22.0793C0.622803 20.0945 0.622803 18.1097 0.622803 16.1249Z" fill="white"/>
<path d="M26.5445 24.1535C26.5445 25.0638 26.5371 25.9816 26.552 26.8919C26.552 27.1008 26.4848 27.2053 26.2983 27.2948C25 27.9142 23.627 28.2648 22.2168 28.4887C18.0905 29.1453 14.0612 28.6529 10.0842 27.459C9.44245 27.265 9.43499 27.265 9.44245 26.6084C9.44245 24.9967 9.42007 23.3775 9.45737 21.7658C9.52453 18.4752 12.1659 15.7293 15.464 15.5875C17.2175 15.5129 18.9784 15.5204 20.7394 15.595C23.2316 15.6995 25.664 17.7439 26.2834 20.1988C26.4475 20.8405 26.4997 21.5121 26.5445 22.1762C26.5818 22.8328 26.5445 23.4969 26.5445 24.1535Z" fill="white"/>
<path d="M22.4034 14.707C22.8362 14.0206 23.3287 13.3938 23.6421 12.6849C23.9555 11.9761 24.0823 11.1851 24.3062 10.3718C24.3211 10.3718 24.433 10.3718 24.5375 10.3718C25.7836 10.3718 27.0297 10.3718 28.2757 10.3718C32.0289 10.3867 34.8271 13.1923 34.8345 16.953C34.8345 18.5349 34.8271 20.1167 34.842 21.6986C34.842 21.9224 34.7674 22.0344 34.5734 22.1239C33.0512 22.8253 31.4469 23.2058 29.7905 23.4073C29.1189 23.4894 28.4474 23.5342 27.7087 23.6013C27.7087 22.9074 27.7534 22.2582 27.7012 21.624C27.4326 18.2439 25.6791 15.9681 22.5228 14.7593C22.4706 14.7369 22.4109 14.7145 22.4034 14.707Z" fill="white"/>
<path d="M12.9794 10.1786C12.9869 7.41037 15.2253 5.17188 17.9936 5.17188C20.747 5.17188 23.0078 7.43275 23.0153 10.1861C23.0153 12.9618 20.747 15.2152 17.9712 15.2003C15.188 15.1854 12.9719 12.9544 12.9794 10.1786Z" fill="white"/>
<path d="M9.18142 0C11.9348 0 14.1807 2.22357 14.1956 4.96945C14.1956 5.18584 14.1434 5.33507 13.9718 5.4843C12.8824 6.40954 12.2034 7.57356 11.8975 8.97635C11.8676 9.13304 11.7258 9.31212 11.5841 9.38674C9.83058 10.312 8.08456 10.2747 6.43553 9.19274C4.79397 8.11826 4.04781 6.52893 4.18958 4.57398C4.38358 1.9848 6.57731 0 9.18142 0Z" fill="white"/>
<path d="M26.3058 0.000182067C28.9622 0.0151053 31.1857 2.11929 31.2976 4.7234C31.4096 7.47674 29.4546 9.74508 26.7535 10.0062C25.9551 10.0809 25.1791 9.96147 24.4329 9.67046C24.2464 9.59585 24.1569 9.50631 24.127 9.29738C23.8435 7.51405 22.9555 6.1038 21.4707 5.08156C21.2841 4.95471 21.2841 4.81294 21.2916 4.6264C21.4781 2.02229 23.6942 -0.0222028 26.3058 0.000182067Z" fill="white"/>
</svg>
