<svg width="375" height="379" viewBox="0 0 375 379" fill="none" xmlns="http://www.w3.org/2000/svg">
<g style="mix-blend-mode:color-dodge" opacity="0.3">
<g style="mix-blend-mode:overlay">
<path d="M510 378.087L509.058 377.559C301.763 262.018 73.4338 262.018 -133.868 377.559L-134.81 378.087V0L-133.868 0.527291C73.427 116.069 301.756 116.069 509.058 0.527291L510 0V378.087ZM-133.445 2.75671V375.321C-82.6621 347.115 -29.62 325.542 24.2273 311.195C77.904 296.893 132.871 289.65 187.598 289.65C242.326 289.65 297.293 296.902 350.969 311.195C404.817 325.542 457.859 347.115 508.642 375.321V2.75671C457.859 30.9622 404.817 52.5349 350.969 66.8828C297.293 81.1844 242.326 88.4277 187.598 88.4277C132.871 88.4277 77.904 81.1751 24.2273 66.8828C-29.62 52.5349 -82.6621 30.9622 -133.445 2.75671Z" fill="white"/>
<path d="M509.119 323.97C301.776 241.425 73.3995 241.425 -133.937 323.97L-134.319 322.194C-31.7223 281.342 76.5867 260.639 187.598 260.639C298.61 260.639 406.919 281.352 509.515 322.194L509.119 323.97Z" fill="white"/>
<path d="M509.195 270.381C301.804 220.843 73.3793 220.843 -134.011 270.381L-134.25 268.558C-31.6742 244.053 76.6074 231.629 187.592 231.629C298.576 231.629 406.858 244.053 509.434 268.558L509.195 270.381Z" fill="white"/>
<path d="M509.276 216.772C301.838 200.25 73.3519 200.25 -134.087 216.772L-134.169 214.922C73.3246 198.4 301.865 198.4 509.352 214.922L509.276 216.772Z" fill="white"/>
<path d="M187.591 175.542C78.5864 175.542 -30.4254 171.406 -134.169 163.146L-134.087 161.295C73.3519 177.817 301.838 177.817 509.276 161.295L509.358 163.146C405.608 171.416 296.603 175.542 187.591 175.542Z" fill="white"/>
<path d="M187.592 146.448C76.6074 146.448 -31.6742 134.024 -134.25 109.519L-134.011 107.697C73.3793 157.234 301.804 157.234 509.195 107.697L509.434 109.519C406.858 134.024 298.576 146.448 187.592 146.448Z" fill="white"/>
<path d="M187.592 117.438C76.58 117.438 -31.7221 96.7255 -134.326 55.8836L-133.943 54.1074C73.3996 136.652 301.777 136.652 509.113 54.1074L509.495 55.8836C406.912 96.7255 298.603 117.438 187.592 117.438Z" fill="white"/>
<path d="M351.515 65.9766H350.151V312.111H351.515V65.9766Z" fill="white"/>
<path d="M297.395 77.9375H296.03V300.149H297.395V77.9375Z" fill="white"/>
<path d="M242.926 85.1162H241.562V292.971H242.926V85.1162Z" fill="white"/>
<path d="M188.274 87.5029H186.909V290.575H188.274V87.5029Z" fill="white"/>
<path d="M133.628 85.1162H132.263V292.971H133.628V85.1162Z" fill="white"/>
<path d="M79.1598 77.9375H77.7948V300.149H79.1598V77.9375Z" fill="white"/>
<path d="M25.0395 65.9766H23.6746V312.111H25.0395V65.9766Z" fill="white"/>
</g>
</g>
</svg>
