<svg width="1920" height="1553" viewBox="0 0 1920 1553" fill="none" xmlns="http://www.w3.org/2000/svg">
<g style="mix-blend-mode:color-dodge" opacity="0.3">
<g style="mix-blend-mode:overlay">
<path d="M2308.19 1552.19L2304.32 1550.02C1453.3 1075.68 515.92 1075.68 -335.133 1550.02L-339 1552.19V0L-335.133 2.16473C515.892 476.507 1453.27 476.507 2304.32 2.16473L2308.19 0V1552.19ZM-333.396 11.3174V1540.83C-124.913 1425.04 92.8449 1336.48 313.909 1277.57C534.272 1218.86 759.931 1189.12 984.609 1189.12C1209.29 1189.12 1434.95 1218.9 1655.31 1277.57C1876.37 1336.48 2094.13 1425.04 2302.61 1540.83V11.3174C2094.13 127.112 1876.37 215.676 1655.31 274.579C1434.95 333.293 1209.29 363.029 984.609 363.029C759.931 363.029 534.272 333.255 313.909 274.579C92.8449 215.676 -124.913 127.112 -333.396 11.3174Z" fill="white"/>
<path d="M2304.58 1330.02C1453.35 991.143 515.78 991.143 -335.414 1330.02L-336.983 1322.73C84.2152 1155.02 528.864 1070.02 984.609 1070.02C1440.35 1070.02 1885 1155.05 2306.2 1322.73L2304.58 1330.02Z" fill="white"/>
<path d="M2304.88 1110.01C1453.47 906.644 515.696 906.644 -335.722 1110.01L-336.702 1102.53C84.4116 1001.93 528.949 950.926 984.581 950.926C1440.21 950.926 1884.75 1001.93 2305.86 1102.53L2304.88 1110.01Z" fill="white"/>
<path d="M2305.22 889.933C1453.61 822.105 515.584 822.105 -336.03 889.933L-336.366 882.338C515.472 814.509 1453.72 814.509 2305.53 882.338L2305.22 889.933Z" fill="white"/>
<path d="M984.581 720.665C537.074 720.665 89.5388 703.689 -336.366 669.775L-336.03 662.18C515.584 730.008 1453.61 730.008 2305.22 662.18L2305.56 669.775C1879.62 703.727 1432.12 720.665 984.581 720.665Z" fill="white"/>
<path d="M984.581 601.226C528.949 601.226 84.4116 550.221 -336.702 449.618L-335.722 442.137C515.696 645.508 1453.47 645.508 2304.88 442.137L2305.86 449.618C1884.75 550.221 1440.21 601.226 984.581 601.226Z" fill="white"/>
<path d="M984.581 482.128C528.837 482.128 84.2154 397.095 -337.011 229.424L-335.442 222.132C515.78 561.007 1453.35 561.007 2304.55 222.132L2306.12 229.424C1884.97 397.095 1440.33 482.128 984.581 482.128Z" fill="white"/>
<path d="M1877.55 202.08H1871.95V1350.07H1877.55V202.08Z" fill="white"/>
<path d="M1657.55 270.857H1651.95V1281.33H1657.55V270.857Z" fill="white"/>
<path d="M1435.37 319.963H1429.76V1232.23H1435.37V319.963Z" fill="white"/>
<path d="M1211.75 349.433H1206.15V1202.76H1211.75V349.433Z" fill="white"/>
<path d="M987.383 359.232H981.779V1192.92H987.383V359.232Z" fill="white"/>
<path d="M763.041 349.433H757.437V1202.76H763.041V349.433Z" fill="white"/>
<path d="M539.427 319.963H533.824V1232.23H539.427V319.963Z" fill="white"/>
<path d="M317.243 270.857H311.639V1281.33H317.243V270.857Z" fill="white"/>
<path d="M97.2438 202.08H91.6401V1350.07H97.2438V202.08Z" fill="white"/>
</g>
</g>
</svg>
