<svg width="42" height="43" viewBox="0 0 42 43" fill="none" xmlns="http://www.w3.org/2000/svg">
<path d="M38.116 42.4169C37.789 42.4169 37.4621 42.4169 37.1351 42.4169C36.3768 42.2429 35.6811 41.9229 35.0341 41.4846C31.5416 39.1123 28.3553 36.3991 25.5168 33.2823C25.2594 32.9971 25.0438 32.9345 24.682 33.0527C22.1775 33.8667 20.0278 35.2372 18.1981 37.1295C16.8345 38.5349 15.464 39.9332 14.0447 41.2759C12.5351 42.7021 10.2184 42.7299 8.63912 41.422C7.05292 40.1002 6.67724 37.8113 7.79732 36.0442C9.48092 33.3867 11.3315 30.8613 13.5647 28.6281C13.6343 28.5585 13.6899 28.475 13.7873 28.3498C13.6621 28.3498 13.5925 28.3498 13.5299 28.3498C9.32786 28.5237 5.46672 27.4662 1.93255 25.1913C0.200252 24.0782 -0.44675 21.9563 0.374179 20.1266C1.20206 18.276 3.24047 17.3507 5.23018 17.9351C5.99545 18.1577 6.75377 18.4221 7.526 18.6378C9.36961 19.1387 11.081 18.8534 12.6325 17.7334C13.0151 17.4551 13.349 17.1072 13.7943 16.7176C9.09828 17.1768 4.91712 13.5661 4.86146 8.74489C4.81276 4.54285 8.13126 0.946071 12.3611 0.66779C14.4691 0.52865 16.3823 1.12 17.9963 2.48357C20.4174 4.52894 21.287 7.1726 20.807 10.2963C20.8974 10.2754 20.9391 10.2754 20.9739 10.2615C25.4334 8.28572 29.9485 8.27181 34.4984 9.90671C36.342 10.5676 37.956 11.6529 39.577 12.7173C40.5858 13.3783 41.3719 14.1505 41.6989 15.3332C41.6989 15.848 41.6989 16.3698 41.6989 16.8846C41.6432 17.0307 41.5806 17.1768 41.5319 17.3299C40.9614 19.0413 39.4309 20.1614 37.7264 19.9527C36.9959 19.8622 36.2724 19.5422 35.5906 19.2222C33.9349 18.4499 32.2304 17.9977 30.3868 18.2691C29.5519 18.3943 28.7519 18.6239 27.9936 19.0204C28.0492 19.1248 28.091 19.1943 28.1327 19.2639C31.4373 24.9408 35.3889 30.1169 40.0014 34.792C40.7249 35.5225 41.3858 36.2738 41.6989 37.2756C41.6989 37.9018 41.6989 38.5279 41.6989 39.154C41.6502 39.2584 41.5945 39.3627 41.5528 39.4741C41.2467 40.3785 40.7179 41.1437 39.9179 41.6377C39.3752 41.9786 38.7213 42.1595 38.116 42.4169ZM24.0976 18.4639C24.1602 17.8516 24.4107 17.3925 24.8977 17.0655C27.6874 15.1523 30.7346 14.5331 34.0462 15.2219C35.3193 15.4862 36.4811 16.0498 37.6429 16.6063C37.956 16.7594 38.2412 16.7524 38.4082 16.4254C38.5821 16.0985 38.4152 15.8689 38.1299 15.681C37.5595 15.3123 37.0029 14.9227 36.4324 14.554C33.0791 12.3625 29.4267 11.5694 25.4682 12.2443C23.3602 12.606 21.5235 13.427 20.0347 15.034C18.6572 16.5159 17.1963 17.9212 15.7492 19.3404C13.1681 21.8797 10.114 22.6868 6.61462 21.7754C5.85631 21.5736 5.11191 21.3023 4.36055 21.0867C3.72051 20.8988 3.14308 21.3649 3.317 21.9493C3.38657 22.1789 3.60919 22.4085 3.82486 22.5407C7.82515 25.0522 12.1315 25.7618 16.7093 24.5791C17.7946 24.3008 18.8381 23.8486 19.8678 23.3964C21.0017 22.9024 21.6209 23.0068 22.3723 24.0016C22.5114 24.1825 22.6506 24.3704 22.7758 24.5652C25.7951 28.9898 29.2876 32.9971 33.5105 36.3156C34.6723 37.2269 35.8898 38.0757 37.0933 38.9384C37.5038 39.2306 37.9699 39.161 38.2691 38.8131C38.5613 38.4722 38.5334 38.0061 38.1995 37.6304C38.0604 37.4774 37.9143 37.3382 37.7751 37.1922C32.5226 31.8492 28.0631 25.9218 24.4385 19.3613C24.2924 19.0761 24.2089 18.763 24.0976 18.4639ZM17.6902 8.73794C17.7319 6.16384 15.5961 3.9515 13.0429 3.91672C10.3505 3.87498 8.17299 5.96208 8.1243 8.62662C8.0756 11.2146 10.2114 13.427 12.7925 13.4618C15.4848 13.5035 17.6485 11.4094 17.6902 8.73794ZM22.8801 30.2282C22.0662 29.122 21.28 28.0576 20.4382 26.9166C19.2695 27.9045 18.1076 28.8437 17.0015 29.8386C14.483 32.1205 12.4446 34.792 10.6358 37.6513C10.3297 38.1383 10.3436 38.5835 10.7123 38.8966C11.088 39.2166 11.5611 39.1679 11.9785 38.7505C13.2864 37.4426 14.5874 36.1347 15.8953 34.8268C16.2571 34.465 16.6258 34.0963 17.0154 33.7554C18.7338 32.2179 20.6817 31.0561 22.8801 30.2282Z" fill="white"/>
</svg>
