<svg width="1006" height="292" viewBox="0 0 1006 292" fill="none" xmlns="http://www.w3.org/2000/svg">
<path d="M130.986 5.98841L125.997 1L121.009 5.98841L125.997 10.9768L130.986 5.98841Z" stroke="white" stroke-width="1.0152" stroke-miterlimit="10" stroke-linecap="round" stroke-linejoin="round"/>
<path d="M141.884 122.578C141.884 106.299 151.752 94.3345 165.255 94.3345C175.368 94.3345 181.965 100.502 181.965 111.23C181.965 127.508 172.097 139.473 158.594 139.473C148.484 139.473 141.884 133.308 141.884 122.578ZM167.413 111.601C167.413 107.345 165.872 105.989 163.774 105.989C158.719 105.989 156.436 116.474 156.436 122.207C156.436 126.463 157.977 127.818 160.075 127.818C165.133 127.818 167.413 117.337 167.413 111.601Z" stroke="white" stroke-width="1.5" stroke-miterlimit="10"/>
<path d="M221.863 123.009C221.863 133.062 213.907 139.473 202.87 139.473C192.078 139.473 184.369 133.555 184.369 121.961C184.369 109.318 192.756 94.3345 212.181 94.3345C217.546 94.3345 222.787 95.5687 225.747 97.727L219.148 107.716C216.865 106.175 214.339 105.618 211.378 105.618C205.766 105.618 202.438 108.394 200.711 112.771C202.809 111.291 205.335 110.552 208.356 110.552C215.205 110.552 221.863 114.869 221.863 123.009ZM207.618 124.49C207.618 122.085 206.077 120.605 203.547 120.605C200.833 120.605 198.738 122.517 198.738 125.414C198.738 127.758 200.158 129.423 202.809 129.423C205.399 129.423 207.618 127.572 207.618 124.49Z" stroke="white" stroke-width="1.5" stroke-miterlimit="10"/>
<path d="M274.835 115.732H287.478L283.778 134.354C279.215 137.622 273.111 139.473 266.266 139.473C252.884 139.473 244.126 131.642 244.126 120.173C244.126 105.004 255.41 94.3345 271.877 94.3345C280.942 94.3345 287.417 97.2314 291.487 102.782L281.067 110.859C278.291 107.281 275.27 106.111 271.199 106.111C263.615 106.111 258.806 111.537 258.806 119.246C258.806 124.301 262.32 127.694 268.303 127.694C269.722 127.694 271.139 127.508 272.558 127.076L274.835 115.732Z" stroke="white" stroke-width="1.5" stroke-miterlimit="10"/>
<path d="M297.774 95.3228H312.325L303.692 138.489H289.14L297.774 95.3228Z" stroke="white" stroke-width="1.5" stroke-miterlimit="10"/>
<path d="M342.173 130.965H325.707L321.39 138.488H306.036L333.537 95.3226H347.843L358.078 138.488H343.587L342.173 130.965ZM340.137 120.48L338.039 109.443L331.689 120.48H340.137V120.48ZM344.332 91.8054H334.711L343.961 81.938H357.588L344.332 91.8054Z" stroke="white" stroke-width="1.5" stroke-miterlimit="10"/>
<path d="M394.65 106.607H382.007L384.29 95.3228H424.124L421.841 106.607H409.199L402.849 138.489H388.297L394.65 106.607Z" stroke="white" stroke-width="1.5" stroke-miterlimit="10"/>
<path d="M453.541 125.906L460.755 138.485H445.647L439.543 127.633H435.965L433.806 138.485H419.255L427.888 95.3193H447.252C458.66 95.3193 465.196 100.56 465.196 109.503C465.196 117.212 460.879 123.131 453.541 125.906ZM445.029 106.546H440.157L438.123 116.659H444.105C448.115 116.659 450.456 114.562 450.456 110.923C450.456 107.841 448.361 106.546 445.029 106.546Z" stroke="white" stroke-width="1.5" stroke-miterlimit="10"/>
<path d="M465.132 147.489C465.132 144.036 468.029 141.571 471.175 141.571C474.072 141.571 476.355 143.604 476.355 146.38C476.355 150.204 473.64 152.423 470.312 152.423C467.229 152.423 465.132 150.389 465.132 147.489ZM473.829 95.3228H488.381L479.748 138.489H465.196L473.829 95.3228Z" stroke="white" stroke-width="1.5" stroke-miterlimit="10"/>
<path d="M560.036 95.3228L533.152 138.489H518.846L509.225 95.3228H524.147L529.513 120.484L545.113 95.3228H560.036V95.3228Z" stroke="white" stroke-width="1.5" stroke-miterlimit="10"/>
<path d="M602.46 103.339L599.192 119.681C596.602 132.631 588.771 139.476 575.512 139.476C563.796 139.476 556.765 133.308 556.765 123.63C556.765 122.149 556.95 120.669 557.257 119.067L562.005 95.3257H576.557L571.87 118.821C571.623 119.994 571.499 121.04 571.499 121.967C571.499 125.852 573.596 127.703 577.296 127.703C581.488 127.703 583.771 125.299 585.066 118.824L589.753 95.3289H598.943C600.669 95.3289 602.335 93.8485 602.335 91.5687C602.335 90.213 601.843 88.918 601.101 88.0547L608.995 85.2793C610.415 87.0667 611.278 89.3497 611.278 92.1251C611.278 98.2194 607.764 102.104 602.46 103.339Z" stroke="white" stroke-width="1.5" stroke-miterlimit="10"/>
<path d="M651.979 103.339C653.83 106.236 654.815 109.753 654.815 113.638C654.815 128.867 643.467 139.476 627.621 139.476C614.178 139.476 605.731 131.521 605.731 120.176C605.731 104.944 617.079 94.3378 632.925 94.3378C639.707 94.3378 642.793 95.6327 646.06 95.6327C649.021 95.6327 650.684 93.8453 650.684 91.5624C650.684 90.2066 650.191 88.9117 649.45 88.0483L657.344 85.2729C658.764 87.0603 659.627 89.3433 659.627 92.3042C659.624 97.9733 656.602 101.733 651.979 103.339ZM629.84 146.38C629.84 150.204 627.125 152.423 623.796 152.423C620.714 152.423 618.617 150.389 618.617 147.489C618.617 144.036 621.513 141.571 624.66 141.571C627.56 141.571 629.84 143.604 629.84 146.38ZM640.139 114.501C640.139 109.507 636.992 106.114 631.691 106.114C624.538 106.114 620.407 112.218 620.407 119.31C620.407 124.304 623.553 127.697 628.855 127.697C636.008 127.697 640.139 121.59 640.139 114.501Z" stroke="white" stroke-width="1.5" stroke-miterlimit="10"/>
<path d="M670.726 106.607H658.083L660.366 95.3228H700.2L697.917 106.607H685.274L678.924 138.489H664.372L670.726 106.607Z" stroke="white" stroke-width="1.5" stroke-miterlimit="10"/>
<path d="M729.553 106.607H716.91L719.193 95.3228H759.027L756.744 106.607H744.101L737.751 138.489H723.199L729.553 106.607Z" stroke="white" stroke-width="1.5" stroke-miterlimit="10"/>
<path d="M788.443 125.906L795.657 138.485H780.549L774.445 127.633H770.867L768.709 138.485H754.157L762.79 95.3193H782.154C793.563 95.3193 800.098 100.56 800.098 109.503C800.098 117.212 795.782 123.131 788.443 125.906ZM779.932 106.546H775.059L773.025 116.659H779.008C783.017 116.659 785.358 114.562 785.358 110.923C785.361 107.841 783.264 106.546 779.932 106.546Z" stroke="white" stroke-width="1.5" stroke-miterlimit="10"/>
<path d="M851.587 113.634C851.587 128.864 840.239 139.473 824.392 139.473C810.95 139.473 802.503 131.518 802.503 120.173C802.503 104.941 813.85 94.3346 829.697 94.3346C843.139 94.3346 851.587 102.29 851.587 113.634ZM826.615 146.38C826.615 150.204 823.9 152.423 820.571 152.423C817.489 152.423 815.392 150.389 815.392 147.489C815.392 144.036 818.288 141.571 821.435 141.571C824.332 141.571 826.615 143.604 826.615 146.38ZM836.914 114.501C836.914 109.507 833.767 106.114 828.466 106.114C821.313 106.114 817.182 112.218 817.182 119.31C817.182 124.304 820.328 127.697 825.63 127.697C832.779 127.697 836.914 121.59 836.914 114.501ZM827.107 91.8054H818.228L827.599 81.938H839.44L845.854 91.8054H837.467L832.965 87.0571L827.107 91.8054Z" stroke="white" stroke-width="1.5" stroke-miterlimit="10"/>
<path d="M861.023 95.3228H875.574L866.941 138.489H852.389L861.023 95.3228Z" stroke="white" stroke-width="1.5" stroke-miterlimit="10"/>
<path d="M140.286 120.445C140.286 104.167 150.153 92.2017 163.656 92.2017C173.77 92.2017 180.366 98.3696 180.366 109.097C180.366 125.375 170.499 137.34 156.996 137.34C146.885 137.34 140.286 131.176 140.286 120.445ZM165.814 109.468C165.814 105.212 164.273 103.856 162.176 103.856C157.12 103.856 154.837 114.341 154.837 120.074C154.837 124.33 156.379 125.685 158.476 125.685C163.534 125.685 165.814 115.204 165.814 109.468Z" fill="white"/>
<path d="M220.264 120.877C220.264 130.929 212.309 137.34 201.271 137.34C190.479 137.34 182.77 131.422 182.77 119.828C182.77 107.185 191.157 92.2017 210.582 92.2017C215.947 92.2017 221.188 93.4359 224.149 95.5942L217.549 105.583C215.266 104.042 212.74 103.486 209.779 103.486C204.168 103.486 200.839 106.261 199.113 110.638C201.21 109.158 203.736 108.419 206.758 108.419C213.607 108.422 220.264 112.736 220.264 120.877ZM206.019 122.357C206.019 119.952 204.478 118.472 201.949 118.472C199.234 118.472 197.14 120.384 197.14 123.281C197.14 125.625 198.559 127.291 201.21 127.291C203.8 127.291 206.019 125.439 206.019 122.357Z" fill="white"/>
<path d="M273.236 113.599H285.879L282.18 132.221C277.617 135.489 271.513 137.34 264.667 137.34C251.286 137.34 242.528 129.51 242.528 118.04C242.528 102.872 253.812 92.2017 270.279 92.2017C279.343 92.2017 285.818 95.0986 289.889 100.649L279.468 108.726C276.693 105.148 273.671 103.978 269.601 103.978C262.016 103.978 257.207 109.404 257.207 117.113C257.207 122.168 260.721 125.561 266.704 125.561C268.123 125.561 269.54 125.375 270.96 124.944L273.236 113.599Z" fill="white"/>
<path d="M296.175 93.1895H310.726L302.093 136.355H287.542L296.175 93.1895Z" fill="white"/>
<path d="M340.575 128.832H324.108L319.791 136.355H304.437L331.938 93.1895H346.244L356.479 136.355H341.988L340.575 128.832ZM338.538 118.35L336.44 107.313L330.09 118.35H338.538ZM342.733 89.6755H333.112L342.362 79.8081H355.99L342.733 89.6755Z" fill="white"/>
<path d="M393.052 104.473H380.409L382.692 93.1895H422.526L420.243 104.473H407.6L401.25 136.355H386.698L393.052 104.473Z" fill="white"/>
<path d="M451.942 123.776L459.156 136.355H444.048L437.944 125.503H434.366L432.208 136.355H417.656L426.289 93.1895H445.653C457.062 93.1895 463.597 98.4301 463.597 107.373C463.597 115.079 459.281 121.001 451.942 123.776ZM443.431 104.413H438.558L436.524 114.526H442.507C446.516 114.526 448.857 112.429 448.857 108.79C448.857 105.708 446.763 104.413 443.431 104.413Z" fill="white"/>
<path d="M463.533 145.359C463.533 141.906 466.43 139.441 469.576 139.441C472.473 139.441 474.756 141.474 474.756 144.25C474.756 148.074 472.042 150.293 468.713 150.293C465.631 150.29 463.533 148.256 463.533 145.359ZM472.23 93.1895H486.782L478.149 136.355H463.597L472.23 93.1895Z" fill="white"/>
<path d="M558.437 93.1895L531.553 136.355H517.247L507.626 93.1895H522.549L527.914 118.35L543.515 93.1895H558.437Z" fill="white"/>
<path d="M600.861 101.205L597.593 117.548C595.003 130.497 587.173 137.343 573.913 137.343C562.197 137.343 555.166 131.175 555.166 121.496C555.166 120.016 555.352 118.536 555.658 116.934L560.407 93.1924H574.958L570.271 116.687C570.025 117.861 569.9 118.906 569.9 119.834C569.9 123.719 571.998 125.57 575.697 125.57C579.889 125.57 582.172 123.165 583.467 116.691L588.154 93.1956H597.344C599.07 93.1956 600.736 91.7152 600.736 89.4354C600.736 88.0797 600.244 86.7847 599.502 85.9214L607.397 83.146C608.816 84.9334 609.68 87.2164 609.68 89.9918C609.68 96.0861 606.166 99.971 600.861 101.205Z" fill="white"/>
<path d="M650.38 101.205C652.232 104.102 653.216 107.619 653.216 111.504C653.216 126.734 641.869 137.343 626.022 137.343C612.58 137.343 604.132 129.388 604.132 118.043C604.132 102.81 615.48 92.2045 631.326 92.2045C638.108 92.2045 641.194 93.4994 644.462 93.4994C647.423 93.4994 649.085 91.712 649.085 89.4291C649.085 88.0733 648.593 86.7784 647.851 85.915L655.746 83.1396C657.165 84.927 658.028 87.21 658.028 90.1709C658.025 95.84 655.004 99.6034 650.38 101.205ZM628.241 144.246C628.241 148.071 625.526 150.29 622.198 150.29C619.115 150.29 617.018 148.256 617.018 145.356C617.018 141.903 619.915 139.437 623.061 139.437C625.961 139.437 628.241 141.474 628.241 144.246ZM638.54 112.368C638.54 107.373 635.394 103.981 630.092 103.981C622.94 103.981 618.808 110.085 618.808 117.177C618.808 122.171 621.955 125.564 627.256 125.564C634.409 125.564 638.54 119.46 638.54 112.368Z" fill="white"/>
<path d="M669.127 104.473H656.484L658.767 93.1895H698.601L696.318 104.473H683.675L677.325 136.355H662.774L669.127 104.473Z" fill="white"/>
<path d="M727.954 104.473H715.311L717.594 93.1895H757.428L755.145 104.473H742.502L736.152 136.355H721.6L727.954 104.473Z" fill="white"/>
<path d="M786.845 123.776L794.058 136.355H778.95L772.846 125.503H769.268L767.11 136.355H752.558L761.191 93.1895H780.555C791.964 93.1895 798.499 98.4301 798.499 107.373C798.499 115.079 794.183 121.001 786.845 123.776ZM778.333 104.413H773.46L771.427 114.526H777.409C781.419 114.526 783.759 112.429 783.759 108.79C783.762 105.708 781.665 104.413 778.333 104.413Z" fill="white"/>
<path d="M849.988 111.505C849.988 126.734 838.64 137.343 822.794 137.343C809.352 137.343 800.904 129.388 800.904 118.043C800.904 102.811 812.252 92.2047 828.098 92.2047C841.541 92.2015 849.988 100.157 849.988 111.505ZM825.016 144.247C825.016 148.071 822.301 150.29 818.973 150.29C815.891 150.29 813.793 148.256 813.793 145.356C813.793 141.903 816.69 139.438 819.836 139.438C822.733 139.438 825.016 141.474 825.016 144.247ZM835.312 112.368C835.312 107.373 832.166 103.981 826.864 103.981C819.711 103.981 815.58 110.085 815.58 117.177C815.58 122.171 818.727 125.564 824.028 125.564C831.181 125.564 835.312 119.46 835.312 112.368ZM825.508 89.6755H816.629L826.001 79.8081H837.841L844.255 89.6755H835.868L831.366 84.9272L825.508 89.6755Z" fill="white"/>
<path d="M859.424 93.1895H873.976L865.342 136.355H850.791L859.424 93.1895Z" fill="white"/>
<path d="M323.719 211.776C323.719 198.738 333.066 188.217 347.725 188.217C354.218 188.217 359.42 190.401 362.107 194.317L358.08 197.786C355.784 194.821 352.204 193.196 347.333 193.196C336.198 193.196 329.312 201.592 329.312 211.439C329.312 218.547 333.958 223.304 342.799 223.304C347.555 223.304 351.583 221.738 354.663 218.658L357.91 222.352C354.271 226.324 348.677 228.283 342.406 228.283C330.601 228.286 323.719 221.571 323.719 211.776Z" stroke="white" stroke-miterlimit="10"/>
<path d="M366.194 215.192C366.194 213.848 366.361 212.449 366.642 210.938L371.062 188.664H376.659L372.184 210.883C371.902 212.227 371.791 213.456 371.791 214.577C371.791 220.341 375.204 223.306 381.416 223.306C388.357 223.306 392.552 219.445 394.288 210.827L398.708 188.668H404.194L399.718 211.22C397.423 222.636 391.045 228.289 380.916 228.289C371.621 228.286 366.194 223.362 366.194 215.192ZM388.076 183.796C390.593 182.734 391.715 181.39 391.715 179.71C391.715 178.31 390.652 177.359 389.086 177.359C387.968 177.359 386.847 177.696 385.673 178.477L384.61 175.904C386.118 174.897 388.076 174.394 389.868 174.394C393.058 174.394 395.128 176.13 395.128 178.928C395.128 182.008 393.281 184.414 389.586 186.091L388.076 183.796Z" stroke="white" stroke-miterlimit="10"/>
<path d="M434.243 218.046H413.312L407.1 227.841H401.055L426.687 188.667H432.229L442.135 227.841H436.593L434.243 218.046ZM433.124 213.567L428.479 194.261L416.166 213.567H433.124Z" stroke="white" stroke-miterlimit="10"/>
<path d="M477.614 193.532H464.239L465.19 188.664H497.593L496.586 193.532H483.211L476.329 227.838H470.788L477.614 193.532Z" stroke="white" stroke-miterlimit="10"/>
<path d="M520.982 215.077L528.145 227.838H522.215L515.388 215.862H514.326H503.86L501.51 227.838H495.857L503.69 188.664H518.298C527.475 188.664 532.735 192.862 532.735 200.136C532.735 207.914 528.371 213.174 520.982 215.077ZM527.138 200.64C527.138 195.938 523.781 193.532 517.791 193.532H508.333L504.809 211.105H514.489C522.492 211.105 527.138 207.522 527.138 200.64Z" stroke="white" stroke-miterlimit="10"/>
<path d="M566.142 227.838L563.791 218.043H542.864L536.652 227.838H530.607L556.239 188.664H561.78L571.687 227.838H566.142ZM562.673 213.567L558.027 194.261L545.715 213.567H562.673ZM552.378 235.615C552.378 237.518 551.034 238.806 549.187 238.806C547.676 238.806 546.614 237.799 546.669 236.233C546.669 234.497 548.124 233.098 549.86 233.098C551.312 233.098 552.433 234.105 552.378 235.615Z" stroke="white" stroke-miterlimit="10"/>
<path d="M585.336 188.664H590.933L583.1 227.838H577.503L585.336 188.664Z" stroke="white" stroke-miterlimit="10"/>
<path d="M651.43 188.664L643.593 227.838H637.996L641.465 210.49H618.968L615.499 227.838H609.902L617.736 188.664H623.333L619.978 205.452H642.475L645.832 188.664H651.43Z" stroke="white" stroke-miterlimit="10"/>
<path d="M667.77 193.532L665.364 205.563H685.062L684.11 210.32H664.412L661.895 222.969H684.784L683.832 227.837H655.346L663.18 188.664H690.825L689.874 193.532H667.77V193.532ZM676.777 185.473L668.829 178.199H675.6L681.867 185.473H676.777Z" stroke="white" stroke-miterlimit="10"/>
<path d="M325.785 210.14C325.785 197.102 335.132 186.581 349.792 186.581C356.285 186.581 361.486 188.765 364.174 192.682L360.146 196.15C357.851 193.185 354.271 191.56 349.399 191.56C338.264 191.56 331.379 199.956 331.379 209.803C331.379 216.911 336.024 221.668 344.865 221.668C349.622 221.668 353.649 220.102 356.729 217.022L359.976 220.716C356.337 224.689 350.743 226.647 344.472 226.647C332.67 226.65 325.785 219.935 325.785 210.14Z" fill="white"/>
<path d="M368.26 213.557C368.26 212.213 368.427 210.814 368.708 209.303L373.128 187.029H378.726L374.25 209.248C373.969 210.591 373.857 211.821 373.857 212.942C373.857 218.706 377.271 221.671 383.482 221.671C390.423 221.671 394.618 217.81 396.354 209.192L400.774 187.029H406.26L401.784 209.581C399.489 220.998 393.111 226.65 382.982 226.65C373.691 226.65 368.26 221.727 368.26 213.557ZM390.142 182.161C392.66 181.098 393.781 179.755 393.781 178.074C393.781 176.675 392.718 175.724 391.152 175.724C390.034 175.724 388.913 176.06 387.739 176.842L386.677 174.269C388.184 173.262 390.142 172.758 391.934 172.758C395.125 172.758 397.194 174.494 397.194 177.293C397.194 180.373 395.347 182.779 391.653 184.456L390.142 182.161Z" fill="white"/>
<path d="M436.309 216.411H415.378L409.167 226.206H403.122L428.753 187.033H434.295L444.201 226.206H438.659L436.309 216.411ZM435.191 211.932L430.545 192.627L418.233 211.932H435.191Z" fill="white"/>
<path d="M479.68 191.897H466.305L467.257 187.029H499.659L498.652 191.897H485.277L478.392 226.203H472.85L479.68 191.897Z" fill="white"/>
<path d="M523.048 213.442L530.211 226.203H524.281L517.454 214.227H516.392H505.927L503.576 226.203H497.923L505.757 187.029H520.364C529.541 187.029 534.802 191.227 534.802 198.501C534.802 206.279 530.437 211.54 523.048 213.442ZM529.204 199.005C529.204 194.304 525.847 191.897 519.857 191.897H510.399L506.875 209.47H516.555C524.559 209.47 529.204 205.887 529.204 199.005Z" fill="white"/>
<path d="M568.211 226.203L565.861 216.408H544.93L538.718 226.203H532.673L558.305 187.029H563.847L573.753 226.203H568.211ZM564.739 211.932L560.093 192.626L547.781 211.932H564.739ZM554.444 233.981C554.444 235.883 553.1 237.172 551.253 237.172C549.743 237.172 548.68 236.165 548.736 234.599C548.736 232.862 550.191 231.463 551.927 231.463C553.381 231.463 554.5 232.47 554.444 233.981Z" fill="white"/>
<path d="M587.406 187.029H593.003L585.169 226.203H579.572L587.406 187.029Z" fill="white"/>
<path d="M653.496 187.029L645.662 226.203H640.065L643.534 208.856H621.038L617.569 226.203H611.972L619.805 187.029H625.402L622.045 203.817H644.541L647.899 187.029H653.496Z" fill="white"/>
<path d="M669.836 191.897L667.43 203.929H687.128L686.176 208.685H666.479L663.961 221.335H686.85L685.899 226.203H657.413L665.246 187.029H692.892L691.94 191.897H669.836ZM678.846 183.838L670.899 176.564H677.67L683.937 183.838H678.846Z" fill="white"/>
<path opacity="0.56" d="M282.321 209.234C278.779 213.174 273.652 215.643 267.936 215.643H101.708C91.0259 215.643 82.3665 206.983 82.3665 196.301V155.169C82.3665 144.488 91.0259 135.828 101.708 135.828H115.58" stroke="white" stroke-width="1.2" stroke-miterlimit="10"/>
<path opacity="0.56" d="M249.591 199.605H120.878C110.196 199.605 101.537 190.946 101.537 180.264V151.865" stroke="white" stroke-width="1.2" stroke-miterlimit="10"/>
<path opacity="0.29" d="M976.126 147.784H987.074C996.967 147.784 1004.99 155.807 1004.99 165.701V203.804C1004.99 213.698 996.967 221.721 987.074 221.721H833.094C825.992 221.721 819.858 217.591 816.962 211.6" stroke="white" stroke-width="1.2" stroke-miterlimit="10"/>
<path opacity="0.53" d="M51.9844 105.74H48.5662C41.1222 105.74 35.0834 99.7007 35.0834 92.2567V63.582C35.0834 56.1379 41.1222 50.0991 48.5662 50.0991H164.452C171.896 50.0991 177.935 56.1379 177.935 63.582" stroke="white" stroke-width="1.2" stroke-miterlimit="10"/>
<path opacity="0.53" d="M988.099 104.801H991.517C998.961 104.801 1005 98.7618 1005 91.3177V62.643C1005 55.1989 998.961 49.1602 991.517 49.1602H875.631C868.187 49.1602 862.149 55.1989 862.149 62.643" stroke="white" stroke-width="1.2" stroke-miterlimit="10"/>
<path d="M239.12 64.1519C236.813 64.1519 234.933 65.8989 234.696 68.1492H88.9576C69.6449 68.1492 53.9307 83.8634 53.9307 103.176V159.025C51.6899 159.272 49.9333 161.143 49.9333 163.45C49.9333 165.919 51.9368 167.922 54.4055 167.922C56.8742 167.922 58.8776 165.919 58.8776 163.45C58.8776 161.143 57.1305 159.263 54.8802 159.025V103.176C54.8802 84.3951 70.1576 69.1082 88.9481 69.1082H234.686C234.933 71.349 236.803 73.1056 239.111 73.1056C241.579 73.1056 243.583 71.1022 243.583 68.6335C243.592 66.1553 241.589 64.1519 239.12 64.1519Z" fill="white" stroke="white" stroke-width="2.1646" stroke-miterlimit="10" stroke-linecap="round" stroke-linejoin="round"/>
<path opacity="0.76" d="M971.094 111C971.094 108.532 969.09 106.528 966.621 106.528C964.153 106.528 962.149 108.532 962.149 111C962.149 113.308 963.896 115.188 966.147 115.425V172.575C966.147 191.356 950.86 206.643 932.079 206.643H742.617C742.37 204.402 740.499 202.646 738.192 202.646C735.723 202.646 733.72 204.649 733.72 207.118C733.72 209.586 735.723 211.59 738.192 211.59C740.499 211.59 742.379 209.843 742.617 207.593H932.069C951.382 207.593 967.096 191.878 967.096 172.566V115.416C969.347 115.178 971.094 113.298 971.094 111Z" fill="white" stroke="white" stroke-width="2.1646" stroke-miterlimit="10" stroke-linecap="round" stroke-linejoin="round"/>
<path d="M936.42 38.1539C940.255 36.5744 942.084 32.1849 940.505 28.3497C938.925 24.5145 934.536 22.686 930.7 24.2655C926.865 25.845 925.037 30.2345 926.616 34.0697C928.196 37.9049 932.585 39.7334 936.42 38.1539Z" stroke="white" stroke-width="1.0152" stroke-miterlimit="10" stroke-linecap="round" stroke-linejoin="round"/>
<path d="M222.797 272.726C226.945 272.726 230.307 269.363 230.307 265.215C230.307 261.067 226.945 257.705 222.797 257.705C218.649 257.705 215.286 261.067 215.286 265.215C215.286 269.363 218.649 272.726 222.797 272.726Z" stroke="white" stroke-width="1.0152" stroke-miterlimit="10" stroke-linecap="round" stroke-linejoin="round"/>
<path d="M13.3975 135.591C17.2297 134.003 19.0496 129.61 17.4621 125.777C15.8747 121.945 11.4812 120.125 7.64891 121.713C3.81664 123.3 1.99682 127.694 3.58423 131.526C5.17165 135.358 9.56518 137.178 13.3975 135.591Z" stroke="white" stroke-width="1.0152" stroke-miterlimit="10" stroke-linecap="round" stroke-linejoin="round"/>
<path d="M896.356 258.002C899.289 255.069 899.289 250.314 896.356 247.381C893.423 244.448 888.668 244.448 885.735 247.381C882.802 250.314 882.802 255.069 885.735 258.002C888.668 260.935 893.423 260.935 896.356 258.002Z" stroke="white" stroke-width="1.0152" stroke-miterlimit="10" stroke-linecap="round" stroke-linejoin="round"/>
<path d="M163.373 246.16L158.385 241.171L153.396 246.16L158.385 251.148L163.373 246.16Z" stroke="white" stroke-width="1.0152" stroke-miterlimit="10" stroke-linecap="round" stroke-linejoin="round"/>
<path d="M318.499 285.66L313.511 280.671L308.522 285.66L313.511 290.648L318.499 285.66Z" stroke="white" stroke-width="1.0152" stroke-miterlimit="10" stroke-linecap="round" stroke-linejoin="round"/>
<path d="M938.567 279.241L933.579 274.252L928.59 279.241L933.579 284.229L938.567 279.241Z" stroke="white" stroke-width="1.0152" stroke-miterlimit="10" stroke-linecap="round" stroke-linejoin="round"/>
</svg>
