<svg width="34" height="36" viewBox="0 0 34 36" fill="none" xmlns="http://www.w3.org/2000/svg">
<path d="M10.782 13.4153C14.8188 13.4153 18.848 13.4153 22.8923 13.4153C22.8997 13.5048 22.9072 13.5794 22.9072 13.6466C22.9072 15.997 22.9221 18.3474 22.8997 20.6904C22.8848 22.4812 21.676 23.9063 19.9449 24.257C19.7285 24.3018 19.5047 24.3167 19.2883 24.3167C17.6467 24.3242 16.0126 24.354 14.3711 24.3093C12.2744 24.257 10.8044 22.7871 10.7596 20.6531C10.7074 18.3027 10.7447 15.9522 10.7447 13.6093C10.7522 13.5571 10.7671 13.4974 10.782 13.4153Z" fill="white"/>
<path d="M13.7965 28.6143C13.7965 29.2858 13.7965 29.9425 13.7965 30.5991C13.7965 31.6064 14.0651 31.7929 15.0799 31.3602C14.8785 32.8973 14.6919 34.3672 14.4979 35.8595C11.8192 35.8595 9.18525 35.8595 6.4916 35.8595C6.4916 34.8671 6.4916 33.8673 6.4916 32.8525C6.06628 32.8525 5.69319 32.8525 5.29026 32.8525C5.29026 33.8598 5.29026 34.8448 5.29026 35.8595C3.66363 35.8595 2.06684 35.8595 0.447667 35.8595C0.380512 34.9268 0.470054 34.0314 0.775981 33.151C1.74599 30.3603 4.12626 28.6441 7.17061 28.5844C9.28971 28.5471 11.4013 28.577 13.5204 28.577C13.5951 28.5844 13.6846 28.5994 13.7965 28.6143Z" fill="white"/>
<path d="M27.1752 35.8667C24.489 35.8667 21.855 35.8667 19.1688 35.8667C18.9748 34.3818 18.7734 32.8969 18.5645 31.3151C18.7361 31.4046 18.7883 31.427 18.8405 31.4568C19.4076 31.8001 19.8628 31.5538 19.8702 30.8823C19.8852 30.2555 19.8702 29.6362 19.8702 29.0094C19.8702 28.8826 19.8702 28.7483 19.8702 28.5767C20.0419 28.5767 20.1612 28.5767 20.2806 28.5767C22.2953 28.5767 24.3174 28.5617 26.332 28.5841C29.2271 28.614 31.3537 29.9123 32.6371 32.5313C33.1072 33.4864 33.3534 35.0384 33.1967 35.8667C31.6074 35.8667 30.0106 35.8667 28.3765 35.8667C28.3765 34.8593 28.3765 33.8744 28.3765 32.8671C27.9661 32.8671 27.593 32.8671 27.1677 32.8671C27.1752 33.8595 27.1752 34.8519 27.1752 35.8667Z" fill="white"/>
<path d="M25.8918 7.31104C25.8918 8.13928 25.9888 8.93767 25.8694 9.69876C25.6456 11.1612 24.3846 12.1611 22.84 12.1686C18.654 12.1835 14.4681 12.176 10.2821 12.1686C9.76722 12.1686 9.52846 11.9447 9.54338 11.4299C9.56577 10.7732 9.54338 10.0942 9.70007 9.46745C10.006 8.23628 11.1103 7.40057 12.3788 7.32596C12.5504 7.3185 12.722 7.31104 12.8937 7.31104C17.0796 7.31104 21.2656 7.31104 25.4516 7.31104C25.6008 7.31104 25.7426 7.31104 25.8918 7.31104Z" fill="white"/>
<path d="M13.2145 27.3531C13.2145 26.704 13.2145 26.0772 13.2145 25.4653C15.632 25.5922 18.0347 25.5847 20.4597 25.4728C20.4597 26.0623 20.4597 26.704 20.4597 27.3606C18.0422 27.3531 15.6395 27.3531 13.2145 27.3531Z" fill="white"/>
<path d="M8.54358 4.07958C8.81966 3.81096 9.08826 3.53488 9.43896 3.19165C9.66281 3.46773 9.89414 3.73635 10.1329 4.02735C10.7746 3.38565 11.379 2.80364 11.961 2.19179C12.2147 1.92317 12.5057 1.81125 12.8713 1.81871C13.9682 1.83363 15.0725 1.82617 16.1992 1.82617C16.1992 2.2291 16.1992 2.60964 16.1992 3.04988C16.0798 3.04988 15.953 3.04988 15.8261 3.04988C14.9233 3.04988 14.013 3.04242 13.1101 3.05734C12.9459 3.05734 12.7519 3.13942 12.64 3.25134C11.9908 3.87812 11.3566 4.52728 10.7149 5.16898C10.2971 5.57937 10.0061 5.57937 9.5882 5.16898C9.24497 4.83321 8.91665 4.48997 8.58088 4.1542C8.55849 4.13928 8.55104 4.10943 8.54358 4.07958Z" fill="white"/>
<path d="M30.7868 15.2057C31.2419 15.2057 31.615 15.2057 32.0105 15.2057C32.0105 15.616 32.0105 15.9966 32.0105 16.4144C31.6299 16.4144 31.2494 16.4144 30.8241 16.4144C30.8241 16.8323 30.8241 17.2054 30.8241 17.6083C30.3987 17.6083 30.0182 17.6083 29.6078 17.6083C29.6078 17.2203 29.6078 16.8472 29.6078 16.4368C29.19 16.4368 28.8094 16.4368 28.4065 16.4368C28.4065 16.019 28.4065 15.6459 28.4065 15.228C28.7945 15.228 29.175 15.228 29.5929 15.228C29.5929 14.8102 29.5929 14.4371 29.5929 14.0342C29.9958 14.0342 30.3689 14.0342 30.7942 14.0342C30.7868 14.3923 30.7868 14.7654 30.7868 15.2057Z" fill="white"/>
<path d="M2.23847 4.13223C2.58917 3.74422 2.83541 3.46068 3.10403 3.16968C3.38011 3.46814 3.63381 3.74422 3.93228 4.06507C3.66366 4.28146 3.36518 4.52023 2.96225 4.84855C3.39503 5.17686 3.71589 5.41563 4.0442 5.66933C3.67858 6.02748 3.40249 6.2961 3.05926 6.63934C2.82049 6.33341 2.57425 6.01256 2.26833 5.61709C1.93255 6.02002 1.67885 6.31849 1.42516 6.62442C1.10431 6.30356 0.843157 6.03495 0.522307 5.7141C0.820772 5.46786 1.11922 5.22163 1.48484 4.93062C1.09684 4.60977 0.798389 4.36354 0.477539 4.10238C0.843159 3.75915 1.12669 3.49799 1.44754 3.19952C1.67139 3.46068 1.92509 3.75915 2.23847 4.13223Z" fill="white"/>
<path d="M16.1469 32.8378C16.5722 32.8378 16.9453 32.8303 17.3109 32.8453C17.393 32.8527 17.5273 32.9348 17.5422 33.002C17.6914 33.9421 17.8183 34.8823 17.9526 35.8598C17.199 35.8598 16.4826 35.8598 15.7216 35.8598C15.8559 34.8599 15.9976 33.86 16.1469 32.8378Z" fill="white"/>
<path d="M3.4845 17.0415C4.69328 17.0415 5.8722 17.0415 7.08099 17.0415C7.08099 17.437 7.08099 17.8175 7.08099 18.2279C5.88713 18.2279 4.70074 18.2279 3.4845 18.2279C3.4845 17.8474 3.4845 17.4668 3.4845 17.0415Z" fill="white"/>
<path d="M25.9666 3.6253C25.9666 3.2373 25.9666 2.86422 25.9666 2.46875C27.1753 2.46875 28.3692 2.46875 29.578 2.46875C29.578 2.84929 29.578 3.22238 29.578 3.6253C28.3767 3.6253 27.1828 3.6253 25.9666 3.6253Z" fill="white"/>
<path d="M28.3542 5.468C27.9587 5.468 27.5931 5.468 27.1976 5.468C27.1976 5.08746 27.1976 4.70691 27.1976 4.28906C27.5707 4.28906 27.9512 4.28906 28.3542 4.28906C28.3542 4.68453 28.3542 5.05761 28.3542 5.468Z" fill="white"/>
<path d="M17.4081 31.6141C17.0052 31.6141 16.647 31.6141 16.259 31.6141C16.259 31.2187 16.259 30.8307 16.259 30.4277C16.6396 30.4277 17.0052 30.4277 17.4081 30.4277C17.4081 30.8157 17.4081 31.2037 17.4081 31.6141Z" fill="white"/>
<path d="M28.3466 1.81172C27.9511 1.81172 27.5781 1.81172 27.1901 1.81172C27.1901 1.41625 27.1901 1.04317 27.1901 0.647705C27.5781 0.647705 27.9511 0.647705 28.3466 0.647705C28.3466 1.02825 28.3466 1.40133 28.3466 1.81172Z" fill="white"/>
<path d="M15.0127 29.7937C15.0127 29.346 15.0127 28.9953 15.0127 28.6147C15.5201 28.6147 16.02 28.6147 16.5871 28.6147C16.0573 29.0177 15.5649 29.3833 15.0127 29.7937Z" fill="white"/>
<path d="M18.6392 29.7862C18.1095 29.3908 17.617 29.0251 17.0648 28.6147C17.6244 28.6147 18.1244 28.6147 18.6392 28.6147C18.6392 28.9878 18.6392 29.3534 18.6392 29.7862Z" fill="white"/>
</svg>
